<svg width="157" height="35" viewBox="0 0 157 35" fill="none" xmlns="http://www.w3.org/2000/svg">
<path d="M0.988 27V1.8H11.896C14.152 1.8 16.096 2.172 17.728 2.916C19.36 3.636 20.62 4.68 21.508 6.048C22.396 7.416 22.84 9.048 22.84 10.944C22.84 12.816 22.396 14.436 21.508 15.804C20.62 17.172 19.36 18.228 17.728 18.972C16.096 19.692 14.152 20.052 11.896 20.052H4.228L6.82 17.424V27H0.988ZM6.82 18.072L4.228 15.3H11.572C13.372 15.3 14.716 14.916 15.604 14.148C16.492 13.38 16.936 12.312 16.936 10.944C16.936 9.552 16.492 8.472 15.604 7.704C14.716 6.936 13.372 6.552 11.572 6.552H4.228L6.82 3.78V18.072Z" fill="#DDD8B8"/>
<path d="M33.4752 27.288C31.8192 27.288 30.2232 27.096 28.6872 26.712C27.1752 26.304 25.9752 25.8 25.0872 25.2L26.9592 21.168C27.8472 21.72 28.8912 22.176 30.0912 22.536C31.3152 22.872 32.5152 23.04 33.6912 23.04C34.9872 23.04 35.8992 22.884 36.4272 22.572C36.9792 22.26 37.2552 21.828 37.2552 21.276C37.2552 20.82 37.0392 20.484 36.6072 20.268C36.1992 20.028 35.6472 19.848 34.9512 19.728C34.2552 19.608 33.4872 19.488 32.6472 19.368C31.8312 19.248 31.0032 19.092 30.1632 18.9C29.3232 18.684 28.5552 18.372 27.8592 17.964C27.1632 17.556 26.5992 17.004 26.1672 16.308C25.7592 15.612 25.5552 14.712 25.5552 13.608C25.5552 12.384 25.9032 11.304 26.5992 10.368C27.3192 9.432 28.3512 8.7 29.6952 8.172C31.0392 7.62 32.6472 7.344 34.5192 7.344C35.8392 7.344 37.1832 7.488 38.5512 7.776C39.9192 8.064 41.0592 8.484 41.9712 9.036L40.0992 13.032C39.1632 12.48 38.2152 12.108 37.2552 11.916C36.3192 11.7 35.4072 11.592 34.5192 11.592C33.2712 11.592 32.3592 11.76 31.7832 12.096C31.2072 12.432 30.9192 12.864 30.9192 13.392C30.9192 13.872 31.1232 14.232 31.5312 14.472C31.9632 14.712 32.5272 14.904 33.2232 15.048C33.9192 15.192 34.6752 15.324 35.4912 15.444C36.3312 15.54 37.1712 15.696 38.0112 15.912C38.8512 16.128 39.6072 16.44 40.2792 16.848C40.9752 17.232 41.5392 17.772 41.9712 18.468C42.4032 19.14 42.6192 20.028 42.6192 21.132C42.6192 22.332 42.2592 23.4 41.5392 24.336C40.8192 25.248 39.7752 25.968 38.4072 26.496C37.0632 27.024 35.4192 27.288 33.4752 27.288ZM48.1806 34.272C47.1726 34.272 46.1766 34.116 45.1926 33.804C44.2086 33.492 43.4046 33.06 42.7806 32.508L44.8326 28.512C45.2646 28.896 45.7566 29.196 46.3086 29.412C46.8846 29.628 47.4486 29.736 48.0006 29.736C48.7926 29.736 49.4166 29.544 49.8726 29.16C50.3526 28.8 50.7846 28.188 51.1686 27.324L52.1766 24.948L52.6086 24.336L59.5566 7.632H64.9566L56.2086 28.188C55.5846 29.748 54.8646 30.972 54.0486 31.86C53.2566 32.748 52.3686 33.372 51.3846 33.732C50.4246 34.092 49.3566 34.272 48.1806 34.272ZM51.4926 27.756L42.8526 7.632H48.6486L55.3446 23.832L51.4926 27.756ZM77.8396 27V1.8H88.7476C91.0036 1.8 92.9476 2.172 94.5796 2.916C96.2116 3.636 97.4716 4.68 98.3596 6.048C99.2476 7.416 99.6916 9.048 99.6916 10.944C99.6916 12.816 99.2476 14.436 98.3596 15.804C97.4716 17.172 96.2116 18.228 94.5796 18.972C92.9476 19.692 91.0036 20.052 88.7476 20.052H81.0796L83.6716 17.424V27H77.8396ZM83.6716 18.072L81.0796 15.3H88.4236C90.2236 15.3 91.5676 14.916 92.4556 14.148C93.3436 13.38 93.7876 12.312 93.7876 10.944C93.7876 9.552 93.3436 8.472 92.4556 7.704C91.5676 6.936 90.2236 6.552 88.4236 6.552H81.0796L83.6716 3.78V18.072ZM103.811 27V0.287998H109.427V27H103.811ZM126.519 27V23.22L126.159 22.392V15.624C126.159 14.424 125.787 13.488 125.043 12.816C124.323 12.144 123.207 11.808 121.695 11.808C120.663 11.808 119.643 11.976 118.635 12.312C117.651 12.624 116.811 13.056 116.115 13.608L114.099 9.684C115.155 8.94 116.427 8.364 117.915 7.956C119.403 7.548 120.915 7.344 122.451 7.344C125.403 7.344 127.695 8.04 129.327 9.432C130.959 10.824 131.775 12.996 131.775 15.948V27H126.519ZM120.615 27.288C119.103 27.288 117.807 27.036 116.727 26.532C115.647 26.004 114.819 25.296 114.243 24.408C113.667 23.52 113.379 22.524 113.379 21.42C113.379 20.268 113.655 19.26 114.207 18.396C114.783 17.532 115.683 16.86 116.907 16.38C118.131 15.876 119.727 15.624 121.695 15.624H126.843V18.9H122.307C120.987 18.9 120.075 19.116 119.571 19.548C119.091 19.98 118.851 20.52 118.851 21.168C118.851 21.888 119.127 22.464 119.679 22.896C120.255 23.304 121.035 23.508 122.019 23.508C122.955 23.508 123.795 23.292 124.539 22.86C125.283 22.404 125.823 21.744 126.159 20.88L127.023 23.472C126.615 24.72 125.871 25.668 124.791 26.316C123.711 26.964 122.319 27.288 120.615 27.288ZM148.63 7.344C150.166 7.344 151.534 7.656 152.734 8.28C153.958 8.88 154.918 9.816 155.614 11.088C156.31 12.336 156.658 13.944 156.658 15.912V27H151.042V16.776C151.042 15.216 150.694 14.064 149.998 13.32C149.326 12.576 148.366 12.204 147.118 12.204C146.23 12.204 145.426 12.396 144.706 12.78C144.01 13.14 143.458 13.704 143.05 14.472C142.666 15.24 142.474 16.224 142.474 17.424V27H136.858V7.632H142.222V12.996L141.214 11.376C141.91 10.08 142.906 9.084 144.202 8.388C145.498 7.692 146.974 7.344 148.63 7.344Z" fill="#CFE4EB"/>
</svg>
