<svg width="70" height="70" viewBox="0 0 70 70" fill="none" xmlns="http://www.w3.org/2000/svg">
<path d="M64.1633 49.3529V58.1029C64.1666 58.9152 64.0002 59.7192 63.6747 60.4635C63.3493 61.2078 62.872 61.8759 62.2735 62.425C61.6749 62.9741 60.9683 63.3922 60.1988 63.6524C59.4293 63.9127 58.6139 64.0093 57.8049 63.9362C48.8299 62.961 40.2087 59.8941 32.6341 54.9821C25.5869 50.504 19.6122 44.5292 15.1341 37.4821C10.2049 29.8731 7.1373 21.21 6.17992 12.1946C6.10704 11.388 6.20289 10.5751 6.46138 9.80763C6.71987 9.04015 7.13534 8.3349 7.68132 7.73678C8.22731 7.13867 8.89185 6.66079 9.63265 6.33358C10.3734 6.00636 11.1743 5.83698 11.9841 5.83622H20.7341C22.1496 5.82229 23.5218 6.32353 24.5951 7.24652C25.6683 8.16952 26.3693 9.45127 26.5674 10.8529C26.9367 13.6531 27.6217 16.4025 28.6091 19.0487C29.0015 20.0927 29.0864 21.2272 28.8538 22.318C28.6212 23.4087 28.0808 24.4099 27.2966 25.2029L23.5924 28.9071C27.7445 36.2091 33.7904 42.255 41.0924 46.4071L44.7966 42.7029C45.5896 41.9187 46.5908 41.3783 47.6815 41.1457C48.7723 40.913 49.9068 40.998 50.9508 41.3904C53.597 42.3778 56.3464 43.0627 59.1466 43.4321C60.5634 43.6319 61.8573 44.3456 62.7823 45.4372C63.7073 46.5289 64.1988 47.9225 64.1633 49.3529Z" stroke="#B38A5B" stroke-width="6" stroke-linecap="round" stroke-linejoin="round"/>
</svg>
